<svg width="48" height="49" viewBox="0 0 48 49" fill="none" xmlns="http://www.w3.org/2000/svg">
<rect y="0.5" width="48" height="48" rx="4" fill="#242629"/>
<path fill-rule="evenodd" clip-rule="evenodd" d="M14.5703 18.36C14.5703 15.8271 16.6348 13.75 19.1803 13.75H28.8203C31.3665 13.75 33.4284 15.827 33.4403 18.3565L33.4403 18.36L33.4403 32.45C33.4403 33.5187 33.0533 34.4642 32.2284 34.95C31.4034 35.4359 30.3895 35.3153 29.4562 34.7957M29.4562 34.7957L24.5696 32.082C24.456 32.0174 24.255 31.9625 24.0091 31.9625C23.7638 31.9625 23.5574 32.0171 23.4356 32.085L18.5544 34.7957L18.5521 34.797C17.6178 35.3114 16.6052 35.4272 15.7822 34.9425C14.9586 34.4575 14.5703 33.5157 14.5703 32.45V18.36M19.1803 15.25C17.4658 15.25 16.0703 16.6529 16.0703 18.36V32.45C16.0703 33.1843 16.327 33.5225 16.5434 33.65C16.7603 33.7777 17.1823 33.8385 17.8274 33.4837C17.8278 33.4834 17.8282 33.4832 17.8286 33.483L22.705 30.775C22.7048 30.7751 22.7052 30.7749 22.705 30.775C23.1032 30.5531 23.577 30.4625 24.0091 30.4625C24.4393 30.4625 24.9117 30.5521 25.3074 30.776L30.1844 33.4843C30.8309 33.8444 31.2525 33.784 31.4672 33.6575C31.6823 33.5308 31.9403 33.1913 31.9403 32.45V18.362C31.9314 16.6522 30.5336 15.25 28.8203 15.25H19.1803Z" fill="white"/>
<path fill-rule="evenodd" clip-rule="evenodd" d="M20.5457 21.2927C20.6878 20.9037 21.1184 20.7034 21.5075 20.8455C23.1213 21.4348 24.8791 21.4348 26.4929 20.8455C26.882 20.7034 27.3126 20.9037 27.4547 21.2927C27.5968 21.6818 27.3965 22.1124 27.0075 22.2545C25.0613 22.9652 22.9391 22.9652 20.9929 22.2545C20.6039 22.1124 20.4036 21.6818 20.5457 21.2927Z" fill="white"/>
</svg>
