<svg width="48" height="48" viewBox="0 0 48 48" fill="none" xmlns="http://www.w3.org/2000/svg">
<rect width="48" height="48" rx="4" fill="#1B1C1F"/>
<path fill-rule="evenodd" clip-rule="evenodd" d="M24.0007 18.9805C22.5964 18.9805 21.4707 20.1132 21.4707 21.5105C21.4707 22.8593 22.5243 23.959 23.8594 24.0289C23.9513 24.0214 24.0494 24.0207 24.1446 24.0287C25.4739 23.9577 26.522 22.8622 26.5307 21.5083C26.5296 20.1135 25.3958 18.9805 24.0007 18.9805ZM19.9707 21.5105C19.9707 19.2877 21.765 17.4805 24.0007 17.4805C26.2249 17.4805 28.0307 19.2863 28.0307 21.5105V21.5147H28.0307C28.0184 23.6831 26.3129 25.4562 24.1463 25.53C24.1023 25.5315 24.0582 25.5292 24.0146 25.5229C24.0189 25.5235 24.0198 25.5235 24.017 25.5233C24.0144 25.5231 24.0101 25.523 24.0045 25.523C23.9922 25.523 23.9808 25.5238 23.9737 25.5247C23.9344 25.5296 23.8948 25.5314 23.8551 25.53C21.6923 25.4563 19.9707 23.6859 19.9707 21.5105Z" fill="white"/>
<path fill-rule="evenodd" clip-rule="evenodd" d="M19.4469 29.4231C18.6767 29.9418 18.2461 30.5354 18.0784 31.0996C19.6846 32.4446 21.7437 33.2496 24 33.2496C26.2563 33.2496 28.3154 32.4446 29.9216 31.0996C29.7538 30.5352 29.323 29.9413 28.5521 29.4223C27.3419 28.6129 25.6963 28.1846 24.0075 28.1846C22.3195 28.1846 20.6681 28.6126 19.4469 29.4231ZM24.0075 26.6846C25.9234 26.6846 27.8774 27.1661 29.3871 28.1762L29.3887 28.1773C30.5914 28.9866 31.3565 30.085 31.4858 31.3002C31.511 31.5371 31.4222 31.7718 31.2465 31.9327C29.3338 33.6843 26.7949 34.7496 24 34.7496C21.2051 34.7496 18.6663 33.6843 16.7535 31.9327C16.5778 31.7718 16.489 31.5371 16.5142 31.3002C16.6435 30.085 17.4086 28.9866 18.6113 28.1773L18.615 28.1748L18.615 28.1748C20.1336 27.1662 22.0914 26.6846 24.0075 26.6846Z" fill="white"/>
<path fill-rule="evenodd" clip-rule="evenodd" d="M24 14.75C18.8914 14.75 14.75 18.8914 14.75 24C14.75 29.1086 18.8914 33.25 24 33.25C29.1086 33.25 33.25 29.1086 33.25 24C33.25 18.8914 29.1086 14.75 24 14.75ZM13.25 24C13.25 18.0629 18.0629 13.25 24 13.25C29.9371 13.25 34.75 18.0629 34.75 24C34.75 29.9371 29.9371 34.75 24 34.75C18.0629 34.75 13.25 29.9371 13.25 24Z" fill="white"/>
</svg>
