<svg width="48" height="49" viewBox="0 0 48 49" fill="none" xmlns="http://www.w3.org/2000/svg">
<rect y="0.5" width="48" height="48" rx="4" fill="#242629"/>
<path d="M31.3113 28.0796C30.6027 28.0798 29.9046 28.2496 29.2751 28.575C28.6457 28.9003 28.1033 29.3716 27.6933 29.9495L20.4161 26.3113C20.5533 25.884 20.6274 25.4289 20.6274 24.957C20.6274 24.4852 20.5533 24.0296 20.4161 23.6023L27.6929 19.9642C28.1027 20.5422 28.645 21.0137 29.2745 21.3391C29.904 21.6645 30.6023 21.8344 31.3109 21.8345C33.7589 21.8345 35.75 19.8433 35.75 17.3957C35.75 14.9482 33.7589 12.957 31.3113 12.957C28.8637 12.957 26.8726 14.9482 26.8726 17.3957C26.8726 17.7412 26.9124 18.0776 26.9874 18.4003L19.5847 22.1015C19.1686 21.6056 18.649 21.2068 18.0623 20.9333C17.4756 20.6598 16.836 20.5181 16.1887 20.5183C13.7411 20.5183 11.75 22.5095 11.75 24.957C11.75 27.4046 13.7411 29.3957 16.1887 29.3957C17.5499 29.3957 18.77 28.7799 19.5847 27.8122L26.987 31.5137C26.9105 31.8431 26.872 32.1802 26.8721 32.5183C26.8726 34.9659 28.8637 36.957 31.3113 36.957C33.7589 36.957 35.75 34.9659 35.75 32.5183C35.75 30.0707 33.7589 28.0796 31.3113 28.0796ZM31.3113 14.6713C32.8134 14.6713 34.0357 15.8936 34.0357 17.3957C34.0357 18.8979 32.8134 20.1202 31.3113 20.1202C29.8091 20.1202 28.5873 18.8979 28.5873 17.3957C28.5873 15.8936 29.8091 14.6713 31.3113 14.6713ZM16.1887 27.6815C15.4664 27.6807 14.7739 27.3934 14.2631 26.8826C13.7524 26.3719 13.4651 25.6794 13.4643 24.957C13.4643 23.4549 14.6866 22.2326 16.1887 22.2326C17.6909 22.2326 18.9131 23.4549 18.9131 24.957C18.9123 25.6794 18.6251 26.3719 18.1143 26.8826C17.6035 27.3934 16.911 27.6807 16.1887 27.6815ZM31.3113 35.2427C29.8091 35.2427 28.5873 34.0205 28.5873 32.5183C28.5873 31.0162 29.8096 29.7943 31.3113 29.7943C32.0335 29.7951 32.726 30.0823 33.2367 30.593C33.7475 31.1037 34.0348 31.7961 34.0357 32.5183C34.0348 33.2406 33.7475 33.933 33.2367 34.4438C32.726 34.9545 32.0336 35.2418 31.3113 35.2427Z" fill="#5A5E66"/>
</svg>
