<svg width="40" height="40" viewBox="0 0 40 40" fill="none" xmlns="http://www.w3.org/2000/svg">
<path fill-rule="evenodd" clip-rule="evenodd" d="M10.25 15C10.25 14.5858 10.5858 14.25 11 14.25H29C29.4142 14.25 29.75 14.5858 29.75 15C29.75 15.4142 29.4142 15.75 29 15.75H11C10.5858 15.75 10.25 15.4142 10.25 15Z" fill="white"/>
<path fill-rule="evenodd" clip-rule="evenodd" d="M10.25 20C10.25 19.5858 10.5858 19.25 11 19.25H29C29.4142 19.25 29.75 19.5858 29.75 20C29.75 20.4142 29.4142 20.75 29 20.75H11C10.5858 20.75 10.25 20.4142 10.25 20Z" fill="white"/>
<path fill-rule="evenodd" clip-rule="evenodd" d="M10.25 25C10.25 24.5858 10.5858 24.25 11 24.25H29C29.4142 24.25 29.75 24.5858 29.75 25C29.75 25.4142 29.4142 25.75 29 25.75H11C10.5858 25.75 10.25 25.4142 10.25 25Z" fill="white"/>
</svg>
