<svg width="48" height="48" viewBox="0 0 48 48" fill="none" xmlns="http://www.w3.org/2000/svg">
<rect width="48" height="48" rx="4" fill="#1B1C1F"/>
<path fill-rule="evenodd" clip-rule="evenodd" d="M23.5835 16.292C19.5564 16.292 16.2918 19.5566 16.2918 23.5837C16.2918 27.6107 19.5564 30.8753 23.5835 30.8753C27.6105 30.8753 30.8752 27.6107 30.8752 23.5837C30.8752 19.5566 27.6105 16.292 23.5835 16.292ZM15.0417 23.5837C15.0417 18.8662 18.866 15.042 23.5835 15.042C28.3009 15.042 32.1252 18.8662 32.1252 23.5837C32.1252 28.3011 28.3009 32.1253 23.5835 32.1253C18.866 32.1253 15.0417 28.3011 15.0417 23.5837Z" fill="white"/>
<path fill-rule="evenodd" clip-rule="evenodd" d="M30.2248 30.2251C30.4689 29.981 30.8646 29.981 31.1087 30.2251L32.7754 31.8917C33.0194 32.1358 33.0194 32.5315 32.7754 32.7756C32.5313 33.0197 32.1356 33.0197 31.8915 32.7756L30.2248 31.1089C29.9807 30.8649 29.9807 30.4691 30.2248 30.2251Z" fill="white"/>
</svg>
