<svg width="48" height="48" viewBox="0 0 48 48" fill="none" xmlns="http://www.w3.org/2000/svg">
<rect width="48" height="48" rx="4" fill="#1B1C1F"/>
<path fill-rule="evenodd" clip-rule="evenodd" d="M18.3923 21.4258C18.3923 18.3223 20.9138 15.8008 24.0174 15.8008C27.1126 15.8008 29.6424 18.3306 29.6424 21.4258V23.8341C29.6424 24.0132 29.6829 24.2752 29.7597 24.5553C29.8356 24.8319 29.9336 25.0778 30.0228 25.2339L30.9783 26.8209C31.733 28.0786 31.1297 29.717 29.7395 30.1772C26.0195 31.4199 22.0059 31.4197 18.2859 30.1769L18.2836 30.1761C17.5816 29.9385 17.0552 29.4473 16.8198 28.8116C16.5841 28.1751 16.6643 27.4587 17.0485 26.8202L18.0055 25.2307L18.0061 25.2297C18.0974 25.0763 18.1973 24.8313 18.2745 24.5534C18.3519 24.2747 18.3923 24.013 18.3923 23.8341V21.4258ZM24.0174 17.0508C21.6042 17.0508 19.6423 19.0126 19.6423 21.4258V23.8341C19.6423 24.1636 19.5745 24.5436 19.4789 24.8877C19.3833 25.2321 19.2461 25.5908 19.0792 25.8708L19.0778 25.8732L18.1195 27.4647C17.9122 27.8094 17.9006 28.1307 17.992 28.3775C18.0836 28.6249 18.3026 28.8626 18.6833 28.9917C22.1461 30.1484 25.8816 30.1482 29.3443 28.9913L29.3462 28.9907C29.9718 28.7839 30.2515 28.0397 29.9067 27.4645L28.9426 25.8632C28.7825 25.5857 28.6484 25.2294 28.5542 24.8859C28.4602 24.543 28.3924 24.1634 28.3924 23.8341V21.4258C28.3924 19.021 26.4222 17.0508 24.0174 17.0508Z" fill="white"/>
<path fill-rule="evenodd" clip-rule="evenodd" d="M21.893 16.4391C22.2258 15.5897 23.0523 14.9922 24.0165 14.9922C24.9808 14.9922 25.8073 15.5897 26.1401 16.4391C26.227 16.6609 26.1804 16.9127 26.0198 17.0886C25.8592 17.2645 25.6127 17.3338 25.384 17.2674C25.1528 17.2003 24.9195 17.1496 24.683 17.121L24.6807 17.1207C23.9603 17.0307 23.2797 17.0841 22.6493 17.2673C22.4206 17.3338 22.174 17.2645 22.0134 17.0887C21.8527 16.9128 21.806 16.6609 21.893 16.4391Z" fill="white"/>
<path fill-rule="evenodd" clip-rule="evenodd" d="M22.1428 29.8838C22.1428 30.3942 22.3552 30.8706 22.6931 31.2085C23.031 31.5465 23.5074 31.7588 24.0178 31.7588C25.0477 31.7588 25.8928 30.9136 25.8928 29.8838H27.1429C27.1429 31.604 25.738 33.0088 24.0178 33.0088C23.1616 33.0088 22.3713 32.6545 21.8092 32.0924C21.2472 31.5303 20.8928 30.74 20.8928 29.8838H22.1428Z" fill="white"/>
</svg>
