<svg width="48" height="48" viewBox="0 0 48 48" fill="none" xmlns="http://www.w3.org/2000/svg">
<rect width="48" height="48" rx="4" fill="#1B1C1F"/>
<path fill-rule="evenodd" clip-rule="evenodd" d="M18.2584 19.5254C17.1786 19.5254 16.2918 20.4122 16.2918 21.492V30.9587C16.2918 31.4246 16.4534 31.6022 16.5492 31.6585C16.6456 31.7152 16.8807 31.7699 17.2889 31.5453C17.2893 31.5451 17.2897 31.5449 17.2901 31.5447L20.5666 29.7188C20.8561 29.5603 21.1951 29.4983 21.5001 29.4983C21.8051 29.4983 22.1441 29.5603 22.4337 29.7189L22.4377 29.7211L25.7102 31.5447C25.7105 31.5449 25.7109 31.5451 25.7113 31.5453C26.1195 31.77 26.3546 31.7152 26.451 31.6585C26.5468 31.6022 26.7085 31.4246 26.7085 30.9587V21.492C26.7085 20.4122 25.8216 19.5254 24.7418 19.5254H18.2584ZM15.0417 21.492C15.0417 19.7219 16.4882 18.2754 18.2584 18.2754H24.7418C26.512 18.2754 27.9585 19.7219 27.9585 21.492V30.9587C27.9585 31.7012 27.6868 32.3819 27.0847 32.736C26.4833 33.0897 25.7562 32.9974 25.1068 32.6394L25.1042 32.638L21.8333 30.8152C21.8328 30.815 21.8323 30.8147 21.8319 30.8145C21.771 30.7816 21.6523 30.7483 21.5001 30.7483C21.3479 30.7483 21.2292 30.7816 21.1683 30.8145C21.1679 30.8147 21.1674 30.815 21.167 30.8152L17.896 32.638L17.8935 32.6394C17.244 32.9974 16.517 33.0897 15.9156 32.736C15.3134 32.3819 15.0417 31.7012 15.0417 30.9587V21.492Z" fill="white"/>
<path fill-rule="evenodd" clip-rule="evenodd" d="M23.2584 16.292C22.1786 16.292 21.2918 17.1788 21.2918 18.2586V18.2753H24.7418C26.512 18.2753 27.9585 19.7218 27.9585 21.492V26.7751L30.7102 28.3113C30.7106 28.3115 30.7111 28.3118 30.7116 28.3121C31.1196 28.5365 31.3546 28.4818 31.451 28.4251C31.5468 28.3688 31.7085 28.1912 31.7085 27.7253V18.2586C31.7085 17.1788 30.8216 16.292 29.7418 16.292H23.2584ZM20.0417 18.2586C20.0417 16.4885 21.4882 15.042 23.2584 15.042H29.7418C31.512 15.042 32.9585 16.4885 32.9585 18.2586V27.7253C32.9585 28.4678 32.6868 29.1485 32.0847 29.5026C31.4833 29.8563 30.7562 29.764 30.1068 29.406L30.1038 29.4044L27.0288 27.6877C26.831 27.5773 26.7084 27.3685 26.7084 27.142V21.492C26.7084 20.4122 25.8216 19.5253 24.7418 19.5253H20.6668C20.3216 19.5253 20.0417 19.2455 20.0417 18.9003V18.2586Z" fill="white"/>
<path fill-rule="evenodd" clip-rule="evenodd" d="M19.2085 24C19.2085 23.6548 19.4883 23.375 19.8335 23.375H23.1668C23.512 23.375 23.7919 23.6548 23.7919 24C23.7919 24.3452 23.512 24.625 23.1668 24.625H19.8335C19.4883 24.625 19.2085 24.3452 19.2085 24Z" fill="white"/>
</svg>
